<svg width="24" height="20" viewBox="0 0 24 20" fill="none" xmlns="http://www.w3.org/2000/svg">
<path d="M16 1.00012H1V14.0001H16V1.00012Z" stroke="white" stroke-width="2" stroke-linecap="round" stroke-linejoin="round"/>
<path d="M16 6.00012H20L23 9.00012V14.0001H16V6.00012Z" stroke="white" stroke-width="2" stroke-linecap="round" stroke-linejoin="round"/>
<path d="M5.5 19.0001C6.88071 19.0001 8 17.8808 8 16.5001C8 15.1194 6.88071 14.0001 5.5 14.0001C4.11929 14.0001 3 15.1194 3 16.5001C3 17.8808 4.11929 19.0001 5.5 19.0001Z" stroke="white" stroke-width="2" stroke-linecap="round" stroke-linejoin="round"/>
<path d="M18.5 19.0001C19.8807 19.0001 21 17.8808 21 16.5001C21 15.1194 19.8807 14.0001 18.5 14.0001C17.1193 14.0001 16 15.1194 16 16.5001C16 17.8808 17.1193 19.0001 18.5 19.0001Z" stroke="white" stroke-width="2" stroke-linecap="round" stroke-linejoin="round"/>
</svg>
