<svg width="768" height="303" viewBox="0 0 768 303" fill="none" xmlns="http://www.w3.org/2000/svg">
<path fill-rule="evenodd" clip-rule="evenodd" d="M481.809 188.193C545.597 217.574 585.215 288.861 597.63 357.984C609.256 422.71 560.612 479.248 545.584 543.27C528.901 614.346 562.215 707.798 504.904 753.025C447.81 798.079 365.012 742.935 292.283 743.158C220.949 743.377 139.084 799.419 83.8159 754.318C27.7892 708.598 70.4666 614.756 49.9573 545.411C30.8585 480.836 -47.6953 431.037 -31.0995 365.774C-14.5772 300.799 65.2787 276.922 125.647 247.76C175.503 223.675 229.424 222.675 284.035 213.541C351.233 202.303 419.927 159.69 481.809 188.193Z" fill="#FFCB47"/>
</svg>
